# xmcd
#
# Track frame offsets:
#	212
#	18270
#	36490
#	53790
#	67347
#	85577
#	101890
#	120355
#	135920
#	156647
#	175080
#
# Disc length: 2619 seconds
#
# Revision: 1
# Processed by: cddbd v1.5.1PL2 Copyright (c) Steve Scherf et al.
# Submitted via: audiograbber 1.83.01
#
DISCID=910a390b
DTITLE=Toni Kaza - Broken Hearts and Promises
DYEAR=1900
DGENRE=
TTITLE0=into the fire
TTITLE1=keep this candle burning
TTITLE2=better than ever
TTITLE3=really really
TTITLE4=isn´t love enough
TTITLE5=atlantis rising
TTITLE6=walk out into the night
TTITLE7=why o why
TTITLE8=I can´t stop crying
TTITLE9=so in love
TTITLE10=falling
EXTD=
EXTT0=
EXTT1=
EXTT2=
EXTT3=
EXTT4=
EXTT5=
EXTT6=
EXTT7=
EXTT8=
EXTT9=
EXTT10=
PLAYORDER=
